<?xml version="1.0" standalone="no"?><!DOCTYPE svg PUBLIC "-//W3C//DTD SVG 1.1//EN" "http://www.w3.org/Graphics/SVG/1.1/DTD/svg11.dtd"><svg height="65" node-id="1" sillyvg="true" template-height="65" template-width="65" version="1.1" viewBox="0 0 65 65" width="65" xmlns="http://www.w3.org/2000/svg" xmlns:xlink="http://www.w3.org/1999/xlink"><defs node-id="96"></defs><path d="M 40.60 9.40 L 42.80 9.50 L 44.20 9.90 L 45.60 10.60 L 47.80 12.90 L 49.00 16.20 L 49.20 18.10 L 48.90 23.80 L 44.50 16.60 L 37.50 18.70 L 31.30 19.50 L 25.10 18.70 L 18.10 16.60 L 13.90 23.80 L 13.80 19.40 L 14.30 15.80 L 15.10 12.90 L 16.50 10.30 L 18.20 8.10 L 20.20 6.30 L 22.50 4.90 L 27.40 3.00 L 31.20 2.20 L 38.20 1.80 L 43.50 2.20 L 42.00 3.10 L 40.50 5.30 L 40.30 6.50 L 40.60 9.40 Z" fill="#94c1ff" fill-rule="nonzero" node-id="99" stroke="none" target-height="22" target-width="35.4" target-x="13.8" target-y="1.8"></path><g node-id="297"><path d="M 40.60 9.40 L 42.80 9.60 L 44.20 10.40 L 45.80 12.20 L 47.00 15.40 L 47.20 21.00 L 48.90 23.80 L 49.20 18.10 L 49.00 16.20 L 47.80 12.90 L 45.60 10.60 L 44.20 9.90 L 42.80 9.50 L 40.60 9.40 Z" fill="#5c9eff" fill-rule="nonzero" group-id="1" node-id="103" stroke="none" target-height="14.4" target-width="8.600002" target-x="40.6" target-y="9.4"></path></g><g node-id="298"><path d="M 38.20 1.80 L 32.00 2.10 L 28.60 2.70 L 23.00 4.60 L 19.00 7.40 L 17.40 9.10 L 16.00 11.20 L 14.80 13.80 L 14.10 16.50 L 13.80 19.80 L 13.90 23.80 L 15.80 20.60 L 16.20 16.70 L 17.00 13.60 L 18.10 11.00 L 19.80 8.70 L 21.70 6.80 L 23.80 5.30 L 28.50 3.20 L 34.80 2.00 L 38.20 1.80 Z" fill="#d7e9ff" fill-rule="nonzero" group-id="2" node-id="108" stroke="none" target-height="22" target-width="24.400002" target-x="13.8" target-y="1.8"></path></g><path d="M 48.90 23.80 L 48.70 28.60 L 48.10 31.30 L 45.80 36.30 L 42.70 40.60 L 39.80 43.20 L 37.00 45.10 L 34.90 46.10 L 31.40 46.80 L 27.90 46.10 L 25.80 45.10 L 23.00 43.20 L 20.10 40.60 L 17.00 36.30 L 14.70 31.30 L 14.10 28.60 L 13.90 23.80 L 18.10 16.60 L 25.10 18.70 L 31.30 19.50 L 37.50 18.70 L 44.50 16.60 L 48.90 23.80 Z" fill="#d7e9ff" fill-rule="nonzero" node-id="111" stroke="none" target-height="30.199999" target-width="35" target-x="13.9" target-y="16.6"></path><g node-id="299"><path d="M 15.90 25.80 L 15.90 23.80 L 19.70 17.20 L 18.10 16.60 L 13.90 23.80 L 14.10 28.60 L 15.70 33.90 L 18.40 38.60 L 23.00 43.20 L 25.80 45.10 L 27.90 46.10 L 29.70 46.60 L 32.40 46.70 L 29.90 46.00 L 27.00 44.60 L 24.30 42.60 L 21.60 40.00 L 19.40 36.90 L 17.50 33.50 L 16.10 28.50 L 15.90 25.80 Z" fill="#ffffff" fill-rule="nonzero" group-id="3" node-id="115" stroke="none" target-height="30.1" target-width="18.500002" target-x="13.9" target-y="16.6"></path></g><g node-id="300"><path d="M 46.90 25.80 L 46.90 23.80 L 43.10 17.20 L 44.70 16.60 L 48.90 23.80 L 48.70 28.60 L 47.10 33.90 L 44.40 38.60 L 39.80 43.20 L 37.00 45.10 L 34.90 46.10 L 33.10 46.60 L 30.40 46.70 L 32.90 46.00 L 35.80 44.60 L 38.50 42.60 L 41.20 40.00 L 43.40 36.90 L 45.30 33.50 L 46.70 28.50 L 46.90 25.80 Z" fill="#94c1ff" fill-rule="nonzero" group-id="4" node-id="120" stroke="none" target-height="30.1" target-width="18.500002" target-x="30.4" target-y="16.6"></path></g><path d="M 31.50 53.80 L 36.20 53.20 L 40.50 51.40 L 43.70 48.60 L 45.30 46.10 L 47.00 47.00 L 45.50 49.70 L 42.00 53.00 L 39.20 54.40 L 37.10 55.10 L 31.50 55.80 L 25.90 55.10 L 23.80 54.40 L 21.00 52.90 L 19.10 51.40 L 17.50 49.60 L 16.00 46.90 L 17.70 46.00 L 19.30 48.50 L 20.70 50.00 L 22.50 51.40 L 24.90 52.60 L 28.90 53.60 L 31.50 53.80 Z" fill="#5c9eff" fill-rule="nonzero" node-id="123" stroke="none" target-height="9.799999" target-width="31" target-x="16" target-y="46"></path><path d="M 47.00 46.90 L 45.30 46.00 L 44.40 47.70 L 46.20 48.50 L 47.00 46.90 Z" fill="#2287ff" fill-rule="nonzero" node-id="125" stroke="none" target-height="2.5" target-width="2.5999985" target-x="44.4" target-y="46"></path><g node-id="301"><path d="M 16.00 46.90 L 17.70 46.00 L 18.60 47.70 L 16.80 48.50 L 16.00 46.90 Z" fill="#94c1ff" fill-rule="nonzero" group-id="5" node-id="131" stroke="none" target-height="2.5" target-width="2.6000004" target-x="16" target-y="46"></path></g><g node-id="302"><path d="M 3.00 58.80 L 3.20 56.90 L 3.70 55.50 L 4.50 54.40 L 6.30 53.00 L 16.80 48.60 L 16.00 47.00 L 4.30 52.00 L 2.50 53.40 L 1.70 54.50 L 1.20 55.90 L 1.00 63.80 L 3.00 63.80 L 3.00 58.80 Z" fill="#ffffff" fill-opacity="0.4" fill-rule="nonzero" group-id="6" node-id="138" stroke="none" target-height="16.8" target-width="15.799999" target-x="1" target-y="47"></path></g><path d="M 31.50 46.80 L 35.10 46.00 L 37.20 44.90 L 40.10 42.70 L 43.00 39.80 L 43.00 43.80 L 43.90 45.10 L 45.30 46.10 L 43.70 48.60 L 40.40 51.40 L 38.00 52.60 L 34.10 53.60 L 31.50 53.80 L 28.90 53.60 L 24.90 52.60 L 22.40 51.40 L 19.20 48.60 L 17.60 46.10 L 19.70 44.40 L 19.90 39.80 L 22.90 42.70 L 25.80 44.90 L 27.90 46.00 L 31.50 46.80 Z" fill="#d7e9ff" fill-rule="nonzero" node-id="141" stroke="none" target-height="14" target-width="27.699999" target-x="17.6" target-y="39.8"></path><g node-id="303"><path d="M 31.50 46.80 L 27.90 46.00 L 25.80 44.90 L 22.90 42.70 L 20.00 39.80 L 20.00 40.80 L 22.90 43.70 L 25.80 45.90 L 27.90 47.00 L 31.50 47.80 L 35.10 47.00 L 37.20 45.90 L 40.10 43.70 L 43.00 40.80 L 43.00 39.80 L 40.10 42.70 L 37.20 44.90 L 35.10 46.00 L 31.50 46.80 Z" fill="#000000" fill-opacity="0.2" fill-rule="nonzero" group-id="7" node-id="145" stroke="none" target-height="8" target-width="23" target-x="20" target-y="39.8"></path></g><g node-id="304"><path d="M 19.20 47.40 L 21.80 45.20 L 22.00 42.80 L 20.00 40.70 L 19.90 44.00 L 18.00 45.70 L 19.20 47.40 Z" fill="#ffffff" fill-rule="nonzero" group-id="8" node-id="150" stroke="none" target-height="6.700001" target-width="4" target-x="18" target-y="40.7"></path></g><path d="M 45.00 45.80 L 43.10 43.80 L 43.10 40.80 L 41.10 42.90 L 41.30 45.30 L 43.90 47.40 L 42.80 48.50 L 39.60 50.90 L 37.30 51.80 L 34.80 52.50 L 31.60 52.70 L 28.80 52.50 L 24.50 51.30 L 21.90 49.90 L 20.20 48.40 L 18.10 45.70 L 17.70 45.90 L 18.40 47.20 L 20.70 49.90 L 22.50 51.20 L 26.80 53.00 L 31.60 53.60 L 34.20 53.40 L 38.10 52.40 L 40.60 51.20 L 42.40 49.90 L 44.70 47.20 L 45.40 45.90 L 45.00 45.80 Z" fill="#94c1ff" fill-rule="nonzero" node-id="153" stroke="none" target-height="12.799999" target-width="27.7" target-x="17.7" target-y="40.8"></path><path d="M 49.50 49.80 L 53.40 49.80 L 47.00 46.90 L 45.40 49.70 L 49.50 49.70 Z" fill="#94c1ff" fill-rule="nonzero" node-id="155" stroke="none" target-height="2.8999977" target-width="8" target-x="45.4" target-y="46.9"></path><path d="M 36.00 56.80 L 36.20 55.30 L 31.50 55.80 L 28.40 55.60 L 23.80 54.40 L 21.00 52.90 L 19.10 51.40 L 17.50 49.60 L 16.00 46.90 L 4.30 51.90 L 2.50 53.30 L 1.70 54.40 L 1.20 55.80 L 1.00 63.70 L 43.00 63.70 L 41.20 63.50 L 39.50 62.80 L 38.10 61.70 L 37.00 60.30 L 36.30 58.60 L 36.00 56.80 Z" fill="#94c1ff" fill-rule="nonzero" node-id="157" stroke="none" target-height="16.8" target-width="42" target-x="1" target-y="46.9"></path><g node-id="305"><path d="M 3.00 58.80 L 3.20 56.90 L 3.70 55.50 L 4.50 54.40 L 6.30 53.00 L 16.80 48.60 L 16.00 47.00 L 4.30 52.00 L 2.50 53.40 L 1.70 54.50 L 1.20 55.90 L 1.00 63.80 L 3.00 63.80 L 3.00 58.80 Z" fill="#d7e9ff" fill-rule="nonzero" group-id="9" node-id="161" stroke="none" target-height="16.8" target-width="15.799999" target-x="1" target-y="47"></path></g><g node-id="306"><path d="M 49.50 49.80 L 53.40 49.80 L 47.00 46.90 L 46.20 48.50 L 48.90 49.70 L 49.50 49.70 Z" fill="#5c9eff" fill-rule="nonzero" group-id="10" node-id="166" stroke="none" target-height="2.8999977" target-width="7.200001" target-x="46.2" target-y="46.9"></path></g><path d="M 29.00 27.80 L 28.70 28.50 L 28.00 28.80 L 21.00 28.80 L 20.30 28.50 L 20.00 27.80 L 20.00 25.80 L 20.30 25.10 L 21.00 24.80 L 28.40 24.90 L 29.00 25.80 L 29.00 27.80 Z" fill="#94c1ff" fill-rule="nonzero" node-id="169" stroke="none" target-height="4" target-width="9" target-x="20" target-y="24.8"></path><path d="M 22.40 28.80 L 24.50 28.80 L 25.60 24.80 L 23.50 24.80 Z" fill="#d7e9ff" fill-rule="nonzero" node-id="171" stroke="none" target-height="4" target-width="3.2000008" target-x="22.4" target-y="24.8"></path><path d="M 25.00 28.80 L 25.60 28.80 L 26.60 24.80 L 26.10 24.80 Z" fill="#d7e9ff" fill-rule="nonzero" node-id="173" stroke="none" target-height="4" target-width="1.6000004" target-x="25" target-y="24.8"></path><path d="M 43.00 27.80 L 42.70 28.50 L 42.00 28.80 L 35.00 28.80 L 34.30 28.50 L 34.00 27.80 L 34.00 25.80 L 34.30 25.10 L 35.00 24.80 L 42.40 24.90 L 43.00 25.80 L 43.00 27.80 Z" fill="#94c1ff" fill-rule="nonzero" node-id="175" stroke="none" target-height="4" target-width="9" target-x="34" target-y="24.8"></path><path d="M 36.40 28.80 L 38.50 28.80 L 39.60 24.80 L 37.50 24.80 Z" fill="#d7e9ff" fill-rule="nonzero" node-id="177" stroke="none" target-height="4" target-width="3.199997" target-x="36.4" target-y="24.8"></path><path d="M 39.00 28.80 L 39.60 28.80 L 40.60 24.80 L 40.10 24.80 Z" fill="#d7e9ff" fill-rule="nonzero" node-id="179" stroke="none" target-height="4" target-width="1.5999985" target-x="39" target-y="24.8"></path><g node-id="307"><path d="M 60.40 58.00 L 60.30 58.80 L 59.70 59.20 L 59.00 59.10 L 58.50 58.50 L 58.60 57.80 L 59.20 57.30 L 60.00 57.40 L 60.40 58.00 Z" fill="#d7e9ff" fill-rule="nonzero" group-id="11" node-id="183" stroke="none" target-height="1.9000015" target-width="1.9000015" target-x="58.5" target-y="57.3"></path><path d="M 58.50 55.80 L 57.60 55.50 L 57.00 54.60 L 57.20 53.50 L 58.10 52.80 L 59.20 53.00 L 59.90 53.90 L 59.70 55.00 L 58.50 55.80 Z M 58.00 54.50 L 58.60 54.90 L 59.00 54.30 L 58.40 53.90 L 58.00 54.50 Z" fill="#3a3847" fill-rule="nonzero" group-id="11" node-id="185" stroke="none" target-height="3" target-width="2.9000015" target-x="57" target-y="52.8"></path><path d="M 54.60 56.80 L 53.40 56.20 L 53.10 55.10 L 53.70 54.20 L 54.80 53.90 L 55.70 54.50 L 56.00 55.60 L 55.40 56.50 L 54.60 56.80 Z M 54.60 54.80 L 54.20 55.00 L 54.30 55.70 L 55.00 55.60 L 54.90 54.90 L 54.60 54.80 Z" fill="#3a3847" fill-rule="nonzero" group-id="11" node-id="187" stroke="none" target-height="2.8999977" target-width="2.9000015" target-x="53.1" target-y="53.9"></path><path d="M 56.50 58.90 L 56.40 59.70 L 55.80 60.10 L 55.10 60.00 L 54.60 59.40 L 54.70 58.70 L 55.30 58.20 L 56.10 58.30 L 56.50 58.90 Z" fill="#d7e9ff" fill-rule="nonzero" group-id="11" node-id="189" stroke="none" target-height="1.8999977" target-width="1.9000015" target-x="54.6" target-y="58.2"></path><path d="M 59.50 54.10 L 59.40 54.90 L 58.80 55.30 L 58.10 55.20 L 57.60 54.60 L 57.70 53.90 L 58.30 53.40 L 59.00 53.50 L 59.50 54.10 Z" fill="#d7e9ff" fill-rule="nonzero" group-id="11" node-id="191" stroke="none" target-height="1.8999977" target-width="1.9000015" target-x="57.6" target-y="53.4"></path><path d="M 55.60 55.00 L 55.50 55.80 L 54.90 56.20 L 54.20 56.10 L 53.70 55.50 L 53.80 54.80 L 54.40 54.30 L 55.20 54.40 L 55.60 55.00 Z" fill="#d7e9ff" fill-rule="nonzero" group-id="11" node-id="193" stroke="none" target-height="1.9000015" target-width="1.8999977" target-x="53.7" target-y="54.3"></path><path d="M 55.80 60.10 L 56.40 59.70 L 56.50 58.90 L 56.10 58.30 L 55.30 58.20 L 59.20 57.30 L 58.60 57.80 L 58.50 58.50 L 59.00 59.10 L 59.70 59.20 L 55.80 60.10 Z" fill="#94c1ff" fill-rule="nonzero" group-id="11" node-id="195" stroke="none" target-height="2.7999992" target-width="4.4000015" target-x="55.3" target-y="57.3"></path><path d="M 57.50 54.60 L 58.00 55.20 L 58.70 55.30 L 54.80 56.20 L 55.40 55.80 L 55.50 55.00 L 55.10 54.40 L 54.30 54.30 L 58.20 53.40 L 57.60 53.80 L 57.50 54.60 Z" fill="#94c1ff" fill-rule="nonzero" group-id="11" node-id="197" stroke="none" target-height="2.7999992" target-width="4.4000015" target-x="54.3" target-y="53.4"></path><path d="M 46.00 56.80 L 45.80 58.00 L 45.10 58.90 L 44.20 59.60 L 43.00 59.80 L 41.80 59.60 L 40.90 58.90 L 40.20 58.00 L 40.00 56.80 L 40.20 55.60 L 40.90 54.70 L 41.80 54.00 L 43.00 53.80 L 44.20 54.00 L 45.10 54.70 L 45.80 55.60 L 46.00 56.80 Z" fill="#94c1ff" fill-rule="nonzero" group-id="11" node-id="199" stroke="none" target-height="6" target-width="6" target-x="40" target-y="53.8"></path><path d="M 41.00 56.80 L 41.70 54.90 L 43.50 53.90 L 41.80 54.00 L 40.90 54.70 L 40.20 55.60 L 40.00 56.80 L 40.20 58.00 L 40.90 58.90 L 41.80 59.60 L 43.50 59.70 L 41.70 58.70 L 41.00 56.80 Z" fill="#d7e9ff" fill-rule="nonzero" group-id="11" node-id="201" stroke="none" target-height="5.799999" target-width="3.5" target-x="40" target-y="53.9"></path><path d="M 45.00 56.80 L 44.30 54.90 L 42.50 53.90 L 44.20 54.00 L 45.10 54.70 L 45.80 55.60 L 46.00 56.80 L 45.80 58.00 L 45.10 58.90 L 44.20 59.60 L 42.50 59.70 L 44.30 58.70 L 45.00 56.80 Z" fill="#5c9eff" fill-rule="nonzero" group-id="11" node-id="203" stroke="none" target-height="5.799999" target-width="3.5" target-x="42.5" target-y="53.9"></path><path d="M 54.90 56.20 L 58.80 55.30 L 59.40 54.90 L 59.50 54.10 L 58.70 53.40 L 54.40 54.30 L 53.80 54.80 L 53.70 55.50 L 54.10 56.10 L 54.90 56.20 Z M 59.20 57.30 L 55.30 58.20 L 54.70 58.70 L 54.60 59.40 L 55.40 60.10 L 59.70 59.20 L 60.30 58.80 L 60.40 58.00 L 60.00 57.40 L 59.20 57.30 Z M 43.00 59.80 L 44.20 59.60 L 45.10 58.90 L 45.80 58.00 L 46.00 56.80 L 45.80 55.60 L 45.10 54.70 L 44.20 54.00 L 43.00 53.80 L 41.80 54.00 L 40.90 54.70 L 40.20 55.60 L 40.00 56.80 L 40.20 57.90 L 40.90 58.90 L 41.90 59.60 L 43.00 59.80 Z M 52.10 61.80 L 47.90 61.80 L 45.70 63.30 L 43.00 63.80 L 41.10 63.50 L 39.50 62.90 L 38.00 61.80 L 36.90 60.30 L 36.30 58.70 L 36.00 56.80 L 36.30 54.90 L 36.90 53.30 L 38.00 51.80 L 39.50 50.70 L 41.10 50.10 L 43.00 49.80 L 57.00 49.80 L 58.90 50.10 L 60.50 50.70 L 62.00 51.80 L 63.10 53.30 L 63.70 54.90 L 64.00 56.80 L 63.70 58.70 L 63.10 60.30 L 62.00 61.80 L 60.50 62.90 L 58.90 63.50 L 57.00 63.80 L 54.30 63.30 L 52.10 61.80 Z" fill="#5c9eff" fill-rule="nonzero" group-id="11" node-id="205" stroke="none" target-height="14" target-width="28" target-x="36" target-y="49.8"></path><g node-id="309"><path d="M 37.00 56.80 L 37.30 54.90 L 37.90 53.30 L 39.00 51.80 L 40.50 50.70 L 42.10 50.10 L 44.00 49.80 L 41.10 50.10 L 39.50 50.70 L 38.00 51.80 L 36.90 53.30 L 36.30 54.90 L 36.00 56.80 L 36.30 58.70 L 36.90 60.30 L 38.00 61.80 L 39.50 62.90 L 41.10 63.50 L 43.50 63.80 L 41.70 63.40 L 40.20 62.70 L 38.90 61.50 L 37.90 60.10 L 37.20 58.60 L 37.00 56.80 Z" fill="#94c1ff" fill-rule="nonzero" group-id="11,13" node-id="209" stroke="none" target-height="14" target-width="8" target-x="36" target-y="49.8"></path></g><path d="M 63.00 56.80 L 62.70 54.90 L 62.10 53.30 L 61.00 51.80 L 59.50 50.70 L 57.90 50.10 L 56.00 49.80 L 58.90 50.10 L 60.50 50.70 L 62.00 51.80 L 63.10 53.30 L 63.70 54.90 L 64.00 56.80 L 63.70 58.70 L 63.10 60.30 L 62.00 61.80 L 60.50 62.90 L 58.90 63.50 L 56.50 63.80 L 58.30 63.40 L 59.80 62.70 L 61.10 61.50 L 62.10 60.10 L 62.80 58.60 L 63.00 56.80 Z" fill="#2287ff" fill-rule="nonzero" group-id="11,14" node-id="214" stroke="none" target-height="14" target-width="8" target-x="56" target-y="49.8"></path></g><g node-id="308"><g node-id="311"><path d="M 31.40 47.30 L 27.80 46.60 L 25.70 45.60 L 22.70 43.60 L 19.80 40.90 L 18.10 38.90 L 15.20 34.10 L 14.20 31.50 L 13.40 25.80 L 13.90 25.30 L 14.40 25.80 L 14.60 28.60 L 16.10 33.70 L 18.10 37.20 L 20.40 40.20 L 23.20 42.80 L 26.00 44.70 L 27.90 45.60 L 31.40 46.30 L 34.90 45.60 L 36.80 44.70 L 39.60 42.80 L 42.40 40.20 L 44.70 37.20 L 46.70 33.70 L 48.20 28.60 L 48.40 25.80 L 48.50 25.40 L 49.30 25.40 L 49.20 28.70 L 48.60 31.40 L 47.60 34.10 L 44.80 38.80 L 43.00 40.90 L 40.10 43.60 L 37.20 45.60 L 35.10 46.60 L 31.40 47.30 Z" fill="#116fff" fill-rule="nonzero" group-id="12,15" node-id="221" stroke="none" target-height="22" target-width="35.9" target-x="13.4" target-y="25.3"></path><path d="M 13.90 24.30 L 13.40 23.90 L 13.30 20.10 L 13.60 16.80 L 14.30 13.90 L 15.40 11.40 L 16.80 9.20 L 18.60 7.20 L 20.90 5.40 L 23.30 4.00 L 26.00 3.00 L 30.10 2.00 L 34.00 1.50 L 40.60 1.50 L 43.90 1.90 L 43.90 2.50 L 42.20 3.60 L 41.30 4.70 L 40.80 7.10 L 41.00 8.90 L 43.60 9.20 L 45.30 9.90 L 47.10 11.20 L 48.30 12.70 L 49.10 14.70 L 49.60 17.10 L 49.80 20.10 L 49.30 24.20 L 48.50 24.10 L 44.30 17.30 L 36.80 19.50 L 31.30 20.10 L 25.80 19.50 L 18.30 17.40 L 14.30 24.20 L 13.90 24.30 Z M 44.50 16.10 L 44.90 16.30 L 48.60 22.30 L 48.80 18.50 L 48.40 15.60 L 47.60 13.40 L 46.40 11.80 L 45.20 10.80 L 43.90 10.20 L 40.70 9.80 L 40.20 9.50 L 39.90 6.90 L 40.10 5.40 L 40.70 3.90 L 42.00 2.50 L 37.60 2.30 L 31.60 2.60 L 28.40 3.20 L 23.00 5.20 L 19.30 7.80 L 17.40 9.90 L 16.00 12.30 L 15.00 15.10 L 14.40 18.30 L 14.30 22.10 L 18.00 16.10 L 25.20 18.20 L 31.30 18.90 L 37.40 18.20 L 44.50 16.10 Z" fill="#116fff" fill-rule="nonzero" group-id="12,15" node-id="223" stroke="none" target-height="22.8" target-width="36.5" target-x="13.3" target-y="1.5"></path></g><g node-id="312"><g node-id="314"><path d="M 37.00 64.30 L 0.60 64.20 L 0.70 55.80 L 1.30 54.20 L 2.10 53.00 L 4.00 51.60 L 14.00 47.40 L 17.80 45.40 L 19.20 44.30 L 19.60 43.40 L 20.40 43.40 L 20.30 44.60 L 17.40 46.80 L 4.60 52.50 L 2.90 53.70 L 1.70 56.10 L 1.50 63.30 L 37.00 63.30 L 37.50 63.80 L 37.00 64.30 Z" fill="#116fff" fill-rule="nonzero" group-id="12,16,18" node-id="230" stroke="none" target-height="20.900002" target-width="36.9" target-x="0.6" target-y="43.4"></path><path d="M 48.00 47.90 L 43.30 45.20 L 42.60 44.20 L 42.60 43.40 L 43.40 43.40 L 43.70 44.30 L 45.00 45.30 L 48.20 47.00 L 48.40 47.70 L 48.00 47.90 Z" fill="#116fff" fill-rule="nonzero" group-id="12,16,18" node-id="232" stroke="none" target-height="4.5" target-width="5.800003" target-x="42.6" target-y="43.4"></path><path d="M 20.00 44.30 L 19.50 43.80 L 19.60 40.00 L 20.40 40.00 L 20.50 40.40 L 20.50 43.80 L 20.00 44.30 Z" fill="#116fff" fill-rule="nonzero" group-id="12,16,18" node-id="234" stroke="none" target-height="4.299999" target-width="1" target-x="19.5" target-y="40"></path><path d="M 43.00 44.30 L 42.50 43.80 L 42.60 39.80 L 43.40 39.80 L 43.50 40.20 L 43.50 43.80 L 43.00 44.30 Z" fill="#116fff" fill-rule="nonzero" group-id="12,16,18" node-id="236" stroke="none" target-height="4.5" target-width="1" target-x="42.5" target-y="39.8"></path></g><path d="M 31.50 56.30 L 25.80 55.60 L 23.70 54.90 L 20.80 53.40 L 18.80 51.70 L 17.20 50.00 L 15.50 47.10 L 15.80 46.50 L 16.40 46.80 L 18.00 49.50 L 21.40 52.60 L 26.00 54.70 L 28.50 55.10 L 34.20 55.30 L 34.30 55.60 L 33.90 56.10 L 31.50 56.30 Z" fill="#116fff" fill-rule="nonzero" group-id="12,16" node-id="239" stroke="none" target-height="9.799999" target-width="18.8" target-x="15.5" target-y="46.5"></path><path d="M 31.50 54.30 L 26.50 53.70 L 22.10 51.70 L 18.80 48.70 L 17.20 46.20 L 17.50 45.60 L 17.90 45.60 L 19.50 48.20 L 20.90 49.60 L 22.60 50.90 L 25.00 52.20 L 28.90 53.10 L 34.30 53.30 L 34.50 53.60 L 34.10 54.20 L 31.50 54.30 Z" fill="#116fff" fill-rule="nonzero" group-id="12,16" node-id="241" stroke="none" target-height="8.700001" target-width="17.3" target-x="17.2" target-y="45.6"></path></g><path d="M 28.00 29.30 L 21.00 29.30 L 20.00 28.90 L 19.50 27.80 L 19.60 25.20 L 20.40 24.40 L 21.00 24.30 L 28.00 24.30 L 29.10 24.80 L 29.50 25.80 L 29.40 28.40 L 28.60 29.20 L 28.00 29.30 Z M 21.00 25.30 L 20.50 25.80 L 20.50 27.80 L 21.00 28.30 L 28.00 28.30 L 28.50 27.80 L 28.50 25.80 L 28.00 25.30 L 21.00 25.30 Z" fill="#116fff" fill-rule="nonzero" group-id="12" node-id="244" stroke="none" target-height="5" target-width="10" target-x="19.5" target-y="24.3"></path><path d="M 42.00 29.30 L 35.00 29.30 L 34.00 28.90 L 33.50 27.80 L 33.60 25.20 L 34.40 24.40 L 35.00 24.30 L 42.00 24.30 L 43.10 24.80 L 43.50 25.80 L 43.40 28.40 L 42.60 29.20 L 42.00 29.30 Z M 35.00 25.30 L 34.50 25.80 L 34.50 27.80 L 35.00 28.30 L 42.00 28.30 L 42.50 27.80 L 42.50 25.80 L 42.00 25.30 L 35.00 25.30 Z" fill="#116fff" fill-rule="nonzero" group-id="12" node-id="246" stroke="none" target-height="5" target-width="10" target-x="33.5" target-y="24.3"></path><path d="M 34.00 27.30 L 29.00 27.30 L 28.60 27.20 L 28.60 26.40 L 34.00 26.30 L 34.50 26.80 L 34.00 27.30 Z" fill="#116fff" fill-rule="nonzero" group-id="12" node-id="248" stroke="none" target-height="1" target-width="5.8999996" target-x="28.6" target-y="26.3"></path><g node-id="313"><g node-id="315"><path d="M 57.00 50.30 L 43.00 50.30 L 42.60 50.20 L 42.60 49.40 L 57.00 49.30 L 57.50 49.80 L 57.00 50.30 Z" fill="#116fff" fill-rule="nonzero" group-id="12,17,19" node-id="254" stroke="none" target-height="1" target-width="14.900002" target-x="42.6" target-y="49.3"></path><path d="M 52.10 62.30 L 47.90 62.30 L 47.50 62.20 L 47.50 61.40 L 52.10 61.30 L 52.60 61.80 L 52.10 62.30 Z" fill="#116fff" fill-rule="nonzero" group-id="12,17,19" node-id="256" stroke="none" target-height="1" target-width="5.0999985" target-x="47.5" target-y="61.3"></path><path d="M 43.00 64.30 L 41.00 64.00 L 39.20 63.30 L 37.70 62.10 L 36.50 60.60 L 35.80 58.80 L 35.50 56.80 L 35.80 54.80 L 36.50 53.00 L 37.70 51.50 L 39.20 50.30 L 41.00 49.60 L 43.00 49.30 L 43.40 49.40 L 43.40 50.20 L 41.20 50.50 L 39.70 51.20 L 38.40 52.20 L 37.40 53.50 L 36.70 55.00 L 36.50 56.80 L 36.70 58.60 L 37.40 60.10 L 38.40 61.40 L 39.70 62.40 L 41.20 63.10 L 43.00 63.30 L 44.70 63.10 L 46.20 62.40 L 47.50 61.40 L 48.20 61.40 L 48.20 62.10 L 47.10 63.00 L 44.50 64.20 L 43.00 64.30 Z" fill="#116fff" fill-rule="nonzero" group-id="12,17,19" node-id="258" stroke="none" target-height="15.000004" target-width="12.700001" target-x="35.5" target-y="49.3"></path><path d="M 57.00 64.30 L 55.00 64.00 L 53.30 63.30 L 51.80 62.20 L 51.80 61.50 L 52.50 61.50 L 53.80 62.50 L 55.30 63.20 L 57.00 63.40 L 58.80 63.20 L 60.30 62.50 L 61.60 61.50 L 62.60 60.20 L 63.30 58.70 L 63.50 56.90 L 63.30 55.10 L 62.60 53.60 L 61.60 52.30 L 60.30 51.30 L 58.80 50.60 L 56.60 50.30 L 56.60 49.50 L 57.00 49.40 L 59.00 49.70 L 60.80 50.40 L 62.30 51.60 L 63.50 53.10 L 64.20 54.90 L 64.50 56.90 L 64.20 58.90 L 63.50 60.60 L 62.30 62.10 L 60.80 63.30 L 59.00 64.00 L 57.00 64.30 Z" fill="#116fff" fill-rule="nonzero" group-id="12,17,19" node-id="260" stroke="none" target-height="14.900002" target-width="12.700001" target-x="51.8" target-y="49.4"></path><path d="M 43.00 60.30 L 41.60 60.00 L 40.50 59.30 L 39.80 58.20 L 39.50 56.80 L 39.80 55.40 L 40.50 54.30 L 41.60 53.60 L 43.00 53.30 L 44.40 53.60 L 45.50 54.30 L 46.20 55.40 L 46.50 56.80 L 46.20 58.20 L 45.50 59.30 L 44.40 60.00 L 43.00 60.30 Z M 43.00 54.30 L 42.00 54.50 L 40.70 55.80 L 40.70 57.80 L 42.00 59.10 L 44.00 59.10 L 45.30 57.80 L 45.30 55.80 L 44.00 54.50 L 43.00 54.30 Z" fill="#116fff" fill-rule="nonzero" group-id="12,17,19" node-id="262" stroke="none" target-height="7" target-width="7" target-x="39.5" target-y="53.3"></path><path d="M 43.00 58.30 L 42.50 57.80 L 42.60 55.40 L 43.40 55.40 L 43.50 55.80 L 43.50 57.80 L 43.00 58.30 Z" fill="#116fff" fill-rule="nonzero" group-id="12,17,19" node-id="264" stroke="none" target-height="2.8999977" target-width="1" target-x="42.5" target-y="55.4"></path><path d="M 44.00 57.30 L 41.60 57.20 L 41.60 56.40 L 42.00 56.30 L 44.40 56.40 L 44.40 57.20 L 44.00 57.30 Z" fill="#116fff" fill-rule="nonzero" group-id="12,17,19" node-id="266" stroke="none" target-height="1" target-width="2.800003" target-x="41.6" target-y="56.3"></path><path d="M 54.60 56.80 L 53.40 56.20 L 53.10 55.10 L 53.70 54.20 L 54.80 53.90 L 55.70 54.50 L 56.00 55.60 L 55.40 56.50 L 54.60 56.80 Z M 54.60 54.80 L 54.20 55.00 L 54.30 55.70 L 55.00 55.60 L 55.10 55.20 L 54.60 54.80 Z" fill="#116fff" fill-rule="nonzero" group-id="12,17,19" node-id="268" stroke="none" target-height="2.8999977" target-width="2.9000015" target-x="53.1" target-y="53.9"></path><path d="M 58.50 55.80 L 57.30 55.20 L 57.00 54.10 L 57.60 53.20 L 58.70 52.90 L 59.60 53.50 L 59.90 54.60 L 59.30 55.50 L 58.50 55.80 Z M 58.50 53.80 L 58.10 54.00 L 58.20 54.80 L 58.90 54.70 L 59.00 54.30 L 58.50 53.80 Z" fill="#116fff" fill-rule="nonzero" group-id="12,17,19" node-id="270" stroke="none" target-height="2.8999977" target-width="2.9000015" target-x="57" target-y="52.9"></path><path d="M 55.50 60.70 L 54.30 60.10 L 54.00 59.00 L 54.60 58.10 L 55.70 57.80 L 56.60 58.40 L 56.90 59.50 L 56.30 60.40 L 55.50 60.70 Z M 55.50 58.70 L 55.10 58.90 L 55.20 59.60 L 55.90 59.50 L 56.00 59.10 L 55.50 58.70 Z" fill="#116fff" fill-rule="nonzero" group-id="12,17,19" node-id="272" stroke="none" target-height="2.9000015" target-width="2.9000015" target-x="54" target-y="57.8"></path><path d="M 59.40 59.70 L 58.50 59.40 L 57.90 58.50 L 58.10 57.40 L 59.00 56.70 L 60.10 56.90 L 60.80 57.80 L 60.60 58.90 L 59.40 59.70 Z M 59.40 57.70 L 59.00 57.90 L 59.10 58.60 L 59.80 58.50 L 59.90 58.10 L 59.40 57.70 Z" fill="#116fff" fill-rule="nonzero" group-id="12,17,19" node-id="274" stroke="none" target-height="3" target-width="2.8999977" target-x="57.9" target-y="56.7"></path><path d="M 54.40 54.80 L 53.90 54.40 L 54.30 53.80 L 58.20 52.90 L 58.80 53.30 L 58.40 53.90 L 54.40 54.80 Z" fill="#116fff" fill-rule="nonzero" group-id="12,17,19" node-id="276" stroke="none" target-height="1.8999977" target-width="4.8999977" target-x="53.9" target-y="52.9"></path><path d="M 54.80 56.70 L 54.30 56.30 L 54.70 55.70 L 58.60 54.80 L 59.20 55.20 L 58.80 55.80 L 54.80 56.70 Z" fill="#116fff" fill-rule="nonzero" group-id="12,17,19" node-id="278" stroke="none" target-height="1.9000015" target-width="4.9000015" target-x="54.3" target-y="54.8"></path><path d="M 55.30 58.70 L 54.80 58.30 L 55.20 57.70 L 59.10 56.80 L 59.70 57.20 L 59.30 57.80 L 55.30 58.70 Z" fill="#116fff" fill-rule="nonzero" group-id="12,17,19" node-id="280" stroke="none" target-height="1.9000015" target-width="4.9000015" target-x="54.8" target-y="56.8"></path><path d="M 55.80 60.60 L 55.30 60.20 L 55.70 59.60 L 59.60 58.70 L 60.20 59.10 L 59.80 59.70 L 55.80 60.60 Z" fill="#116fff" fill-rule="nonzero" group-id="12,17,19" node-id="282" stroke="none" target-height="1.8999977" target-width="4.9000015" target-x="55.3" target-y="58.7"></path><path d="M 49.00 59.30 L 47.60 59.20 L 47.60 58.40 L 49.40 58.40 L 49.40 59.20 L 49.00 59.30 Z" fill="#116fff" fill-rule="nonzero" group-id="12,17,19" node-id="284" stroke="none" target-height="0.8999977" target-width="1.800003" target-x="47.6" target-y="58.4"></path><path d="M 52.00 59.30 L 50.60 59.20 L 50.60 58.40 L 51.00 58.30 L 52.40 58.40 L 52.40 59.20 L 52.00 59.30 Z" fill="#116fff" fill-rule="nonzero" group-id="12,17,19" node-id="286" stroke="none" target-height="1" target-width="1.800003" target-x="50.6" target-y="58.3"></path></g><path d="M 50.00 49.30 L 49.50 48.80 L 49.70 47.80 L 51.00 46.50 L 52.00 46.30 L 52.50 46.80 L 52.40 47.20 L 51.00 47.80 L 50.40 49.10 L 50.00 49.30 Z" fill="#116fff" fill-rule="nonzero" group-id="12,17" node-id="289" stroke="none" target-height="3" target-width="3" target-x="49.5" target-y="46.3"></path><path d="M 53.00 47.30 L 52.60 47.20 L 52.60 46.40 L 54.10 45.90 L 54.50 44.80 L 54.10 43.80 L 52.60 43.20 L 52.60 42.40 L 53.00 42.30 L 54.80 43.00 L 55.50 44.80 L 54.80 46.60 L 53.00 47.30 Z" fill="#116fff" fill-rule="nonzero" group-id="12,17" node-id="291" stroke="none" target-height="5" target-width="2.9000015" target-x="52.6" target-y="42.3"></path><path d="M 53.00 47.30 L 51.60 47.20 L 51.60 46.40 L 53.40 46.40 L 53.40 47.20 L 53.00 47.30 Z" fill="#116fff" fill-rule="nonzero" group-id="12,17" node-id="293" stroke="none" target-height="0.8999977" target-width="1.800003" target-x="51.6" target-y="46.4"></path><path d="M 53.00 43.30 L 44.90 43.30 L 44.50 43.20 L 44.50 42.40 L 53.00 42.30 L 53.50 42.80 L 53.00 43.30 Z" fill="#116fff" fill-rule="nonzero" group-id="12,17" node-id="295" stroke="none" target-height="1" target-width="9" target-x="44.5" target-y="42.3"></path></g></g></svg>